    <svg
      xmlns="http://www.w3.org/2000/svg"
      version="1.0"
      viewBox="0 0 913 507"
      stroke="black"
      stroke-width="12"
    >
      <path d="M724 23c-9 4-17 13-26 27l-15 24-11 16v4a498 498 0 0 1 36 5c26 3 54 1 63-3 12-6 16-17 10-24-5-5-12-8-28-10l-4-1 3-5c8-11 9-21 2-30-8-8-18-9-30-4zm20 4c4 2 8 7 9 11 1 7-6 18-14 22-6 3-8 5-8 8 1 2 3 2 11 0 7-1 19 0 26 3 6 2 10 6 10 9s-7 10-13 12c-8 2-38 3-56 0a614 614 0 0 0-29-3l4-6 13-21c14-22 21-31 31-35 5-2 12-3 16-1zM638 27c-6 3-16 12-21 19l-3 5-1-5c-2-6-4-9-9-12-8-6-21-8-29-4-15 7-15 28-2 69l6 23c4 19 6 20 17 12 9-6 51-47 58-56 17-21 20-41 7-50-4-3-16-4-23-1zm20 6c5 3 6 11 3 21-4 13-9 20-38 47-19 19-33 31-35 31l-2-9-8-26c-7-24-8-30-8-42-1-16 4-21 16-21 4 0 7 1 11 3 9 4 10 6 10 19 0 11 0 11 2 12 1 0 3-2 7-9l10-15c10-11 23-16 32-11z" />
      <path d="M513 53c-2 1-3 3-5 7-7 19-13 30-25 42-12 13-25 21-54 32-32 12-44 19-61 34-12 13-23 26-39 50-24 37-33 54-38 71-2 7-2 8-6 8a377 377 0 0 1-177-37c-9-4-11-5-13-4-2 2-1 2 13 9a411 411 0 0 0 159 36h21v6c0 4 0 5 2 5 1 0 2-2 3-10 3-23 13-43 44-89l16-22c8-10 22-24 31-30 8-7 30-17 50-25 26-10 37-16 51-30 13-12 20-24 26-40 4-13 9-14 18-5 8 8 13 22 13 34 0 13-5 30-13 42-9 15-21 26-53 51l-26 21c-12 11-25 27-23 29 1 2 3 1 7-5l10-12 7-6 2 3c4 6 11 12 17 14 5 1 6 1 30-2a856 856 0 0 1 133-7l-7 11c-10 13-15 22-26 45-13 25-19 34-32 47l-16 15c-3 4-7 7-23 15-35 17-40 18-67 5-18-9-26-11-41-12-17-1-35 3-60 11-18 6-21 8-21 9l1 2 17-5c29-10 45-14 63-13 15 1 20 3 38 11 17 8 20 9 27 10 10 1 20-2 36-10l18-9 4-2-3 6c-6 13-6 17-6 33 0 15 1 21 3 20l1-4c-1-17-1-25 1-33 2-9 7-19 11-25l17-18c17-18 22-24 36-52 12-24 17-33 27-47 9-11 32-34 42-42 9-7 21-13 30-15 6-2 17-2 21-1 2 1 2 1-2 7l-15 17-20 22c-33 38-58 81-98 171-17 39-28 54-46 62a760 760 0 0 1-157 16c-36-1-54-4-84-11a362 362 0 0 0-201 13l-1 3 15-4c54-15 96-20 132-17 19 2 34 4 50 8a440 440 0 0 0 133 11c37-2 86-7 100-10 27-6 42-22 61-65l5-11 9-6 32-17c34-18 35-18 58-66l15-30 9-6c20-14 38-23 83-43 82-36 92-42 92-55 0-5-4-9-10-10a260 260 0 0 0-58 6l1-2c1-3-2-8-5-10-5-3-14-5-22-5-13 0-39 8-62 20-14 7-14 7-22 7-21 0-41 11-67 37l-13 13-7-2-32-1c-35 1-67 4-105 10-16 3-21 2-27-2-4-3-11-11-11-13l27-22c20-16 29-23 38-34 21-22 31-49 26-73-3-14-11-26-19-30-6-2-9-2-13 0zm301 96c4 1 9 5 9 7 0 3-6 6-16 9a294 294 0 0 0-33 10l7-8c7-8 9-13 8-16 0-2 0-3 2-3 4-1 19 0 23 1zm-29 3a577 577 0 0 0-93 144c-17 34-20 39-29 47-5 5-9 8-25 16a462 462 0 0 0-38 20c0-1 16-36 25-52 27-55 47-84 84-123 15-18 24-29 22-31-1-1 1-2 9-6 22-11 42-18 45-15zm103 8c4 4 3 8-3 13-7 7-28 17-78 39a651 651 0 0 0-90 45l8-13c9-16 24-36 34-50 7-9 8-10 15-13 34-14 76-23 104-23 6 0 8 1 10 2z" />
      <path d="m658 110-6 6c-4 5-3 17 1 34l3 22c1 11 2 12 9 10 10-4 42-26 50-34l4-9c3-12-7-19-22-15l-9 4-4 2v-4c0-13-15-22-26-16zm16 7c4 4 3 3 4 14l1 10 4-2c3-4 14-9 21-10 5 0 6 0 8 2 6 6-2 15-27 32l-16 10-6 3v-2l-1-9-3-18c-5-18-5-27 1-31 4-3 10-3 14 1z" />
    </svg>