<svg xmlns="http://www.w3.org/2000/svg" xml:space="preserve" viewBox="0 0 512 512">
  <path fill="#f6bb42" d="m350 177-72-18L37 264 0 338l126 36 260-115z"/>
  <path fill="#ffce54" d="M350 177 108 284l18 90 260-115z"/>
  <path fill="#e8aa3d" d="m108 284-71-20-37 74 126 36z"/>
  <path fill="#f6bb42" d="m476 213-72-18-241 105-37 74 126 36 260-115z"/>
  <path fill="#ffce54" d="M476 213 234 320l18 90 260-115z"/>
  <path fill="#e8aa3d" d="m234 320-71-20-37 74 126 36z"/>
  <path fill="#f6bb42" d="m396 119-72-18-220 97-37 75 126 36 239-108z"/>
  <path fill="#ffce54" d="M396 119 175 219l18 90 239-108z"/>
  <path fill="#e8aa3d" d="m175 219-71-21-37 75 126 36z"/>
</svg>