<svg width="60" height="39" viewBox="0 0 60 39" fill="black" xmlns="http://www.w3.org/2000/svg">
<path d="M25.52 31.072C25.7333 31.072 25.8933 31.1787 26 31.392C26.128 31.6267 26.192 31.9253 26.192 32.288C26.192 32.9707 26.0107 33.6427 25.648 34.304C24.9227 35.6267 23.9627 36.64 22.768 37.344C21.5947 38.0693 20.3893 38.432 19.152 38.432C17.8933 38.432 16.8373 38.2293 15.984 37.824C15.1307 37.44 14.4053 36.8533 13.808 36.064C13.2107 35.296 12.6347 34.272 12.08 32.992C11.504 31.6693 11.024 30.6773 10.64 30.016C10.2773 29.376 9.89333 28.9067 9.488 28.608C9.08267 28.3093 8.56 28.096 7.92 27.968C5.552 27.4987 3.64267 26.3253 2.192 24.448C0.762667 22.5707 0.0480001 20.1493 0.0480001 17.184C0.0480001 13.9413 0.634667 11.0827 1.808 8.608C3.00267 6.13333 4.61333 4.224 6.64 2.88C8.688 1.536 10.9493 0.863998 13.424 0.863998C15.3227 0.863998 17.0293 1.29067 18.544 2.144C20.08 2.99733 21.296 4.256 22.192 5.92C23.088 7.56267 23.536 9.536 23.536 11.84C23.536 14.528 23.1307 16.9493 22.32 19.104C21.5093 21.2587 20.3893 23.0507 18.96 24.48C17.5307 25.9093 15.888 26.9227 14.032 27.52C14.5653 27.8187 15.024 28.256 15.408 28.832C15.8133 29.408 16.24 30.24 16.688 31.328C17.1787 32.5227 17.7013 33.376 18.256 33.888C18.832 34.4 19.536 34.656 20.368 34.656C21.072 34.656 21.7547 34.4107 22.416 33.92C23.0773 33.4507 23.824 32.672 24.656 31.584C24.912 31.2427 25.2 31.072 25.52 31.072ZM10.48 24.384C12.144 24.384 13.6053 23.872 14.864 22.848C16.144 21.824 17.1253 20.4053 17.808 18.592C18.4907 16.7573 18.832 14.688 18.832 12.384C18.832 9.84533 18.2987 7.92533 17.232 6.624C16.1653 5.30133 14.7893 4.64 13.104 4.64C11.4827 4.64 10.032 5.16267 8.752 6.208C7.49333 7.232 6.512 8.65067 5.808 10.464C5.104 12.2773 4.752 14.336 4.752 16.64C4.752 19.1787 5.28533 21.1093 6.352 22.432C7.41867 23.7333 8.79467 24.384 10.48 24.384ZM55.517 20.864C55.7943 20.864 56.0077 20.992 56.157 21.248C56.3277 21.504 56.413 21.856 56.413 22.304C56.413 23.136 56.2103 23.7973 55.805 24.288C54.781 25.5253 53.7463 26.4853 52.701 27.168C51.6557 27.8293 50.4183 28.16 48.989 28.16C47.6023 28.16 46.4183 27.7867 45.437 27.04C44.477 26.2933 43.5597 25.0133 42.685 23.2C41.981 21.7493 41.4263 20.6827 41.021 20C40.6157 19.296 40.2103 18.7947 39.805 18.496C39.421 18.1973 38.941 18.016 38.365 17.952C38.2797 18.4 38.0343 19.808 37.629 22.176C37.4583 23.2427 37.3517 23.8933 37.309 24.128C37.0957 25.4293 36.669 26.432 36.029 27.136C35.389 27.8187 34.4183 28.16 33.117 28.16C31.6877 28.16 30.4183 27.744 29.309 26.912C28.221 26.0587 27.3783 24.8853 26.781 23.392C26.1837 21.8773 25.885 20.16 25.885 18.24C25.885 14.656 26.5037 11.5627 27.741 8.96C28.9997 6.35733 30.749 4.37333 32.989 3.008C35.2503 1.62133 37.853 0.927999 40.797 0.927999C42.845 0.927999 44.5623 1.23733 45.949 1.856C47.3357 2.47467 48.3597 3.328 49.021 4.416C49.7037 5.504 50.045 6.73067 50.045 8.096C50.045 9.29067 49.757 10.464 49.181 11.616C48.6263 12.7467 47.7837 13.7493 46.653 14.624C45.5223 15.4987 44.1463 16.1493 42.525 16.576C43.549 16.8533 44.3383 17.3013 44.893 17.92C45.4477 18.5387 46.0023 19.4453 46.557 20.64C47.1543 21.92 47.741 22.8587 48.317 23.456C48.9143 24.0533 49.597 24.352 50.365 24.352C51.0477 24.352 51.6983 24.128 52.317 23.68C52.9357 23.2107 53.7143 22.4213 54.653 21.312C54.909 21.0133 55.197 20.864 55.517 20.864ZM33.949 17.92C33.2237 17.92 32.7223 17.7493 32.445 17.408C32.189 17.0667 32.061 16.6827 32.061 16.256C32.061 15.744 32.221 15.3387 32.541 15.04C32.8823 14.7413 33.2663 14.592 33.693 14.592H34.493C34.8343 12.5013 35.1543 10.6987 35.453 9.184C35.7303 7.79733 36.6263 7.104 38.141 7.104C39.357 7.104 39.965 7.648 39.965 8.736C39.965 8.97067 39.9543 9.152 39.933 9.28L38.973 14.592C40.125 14.528 41.1703 14.2507 42.109 13.76C43.069 13.2693 43.8263 12.5867 44.381 11.712C44.957 10.8373 45.245 9.84533 45.245 8.736C45.245 7.392 44.7863 6.336 43.869 5.568C42.9517 4.8 41.6077 4.416 39.837 4.416C37.7463 4.416 35.9117 4.93867 34.333 5.984C32.7757 7.008 31.5597 8.544 30.685 10.592C29.8103 12.6187 29.373 15.0933 29.373 18.016C29.373 19.3813 29.5117 20.5547 29.789 21.536C30.0663 22.5173 30.4077 23.2533 30.813 23.744C31.2183 24.2347 31.6023 24.48 31.965 24.48C32.2423 24.48 32.4663 24.3413 32.637 24.064C32.829 23.7867 32.9783 23.3387 33.085 22.72L33.949 17.92Z" fill="black"/>
</svg>
