<svg width="14" height="22" viewBox="0 0 14 22" fill="none" xmlns="http://www.w3.org/2000/svg">
<path d="M12.208 0.588572V7.464H11.6594C11.4888 6.14743 11.1718 5.09905 10.7086 4.31886C10.2575 3.53867 9.61143 2.91695 8.77029 2.45371C7.94133 1.99048 7.07581 1.75886 6.17371 1.75886C5.1619 1.75886 4.32076 2.06971 3.65029 2.69143C2.992 3.31314 2.66286 4.02019 2.66286 4.81257C2.66286 5.40991 2.87619 5.95848 3.30286 6.45829C3.90019 7.18972 5.33867 8.16495 7.61829 9.384C9.47124 10.3836 10.733 11.1516 11.4034 11.688C12.0861 12.2122 12.6103 12.8339 12.976 13.5531C13.3417 14.2724 13.5246 15.0282 13.5246 15.8206C13.5246 17.32 12.9394 18.6183 11.7691 19.7154C10.611 20.8004 9.11162 21.3429 7.27086 21.3429C6.6979 21.3429 6.15543 21.3002 5.64343 21.2149C5.35086 21.1661 4.72914 20.9893 3.77829 20.6846C2.82743 20.3676 2.224 20.2091 1.968 20.2091C1.72419 20.2091 1.52914 20.2823 1.38286 20.4286C1.24876 20.5749 1.14514 20.8796 1.072 21.3429H0.523428V14.5406H1.072C1.328 15.9669 1.66933 17.0335 2.096 17.7406C2.52267 18.4476 3.17486 19.0328 4.05257 19.496C4.94248 19.9592 5.91162 20.1909 6.96 20.1909C8.17905 20.1909 9.1421 19.8739 9.84914 19.24C10.5562 18.5939 10.9097 17.832 10.9097 16.9543C10.9097 16.4667 10.7756 15.973 10.5074 15.4731C10.2392 14.9733 9.82476 14.5101 9.264 14.0834C8.8861 13.7909 7.84381 13.1691 6.13714 12.2183C4.44267 11.2674 3.23581 10.5116 2.51657 9.95086C1.80952 9.3779 1.26705 8.7501 0.889143 8.06743C0.523429 7.38476 0.340571 6.63505 0.340571 5.81828C0.340571 4.392 0.883048 3.16686 1.968 2.14286C3.06514 1.10667 4.46095 0.588572 6.15543 0.588572C7.20381 0.588572 8.31924 0.850667 9.50171 1.37486C10.0503 1.61867 10.4343 1.74057 10.6537 1.74057C10.9097 1.74057 11.117 1.66743 11.2754 1.52114C11.4339 1.36267 11.5619 1.05181 11.6594 0.588572H12.208Z" fill="black"/>
</svg>
